<?xml version="1.0" encoding="utf-8"?>
<!-- Generator: Adobe Illustrator 21.0.0, SVG Export Plug-In . SVG Version: 6.00 Build 0)  -->
<svg version="1.1"
	 id="NexT" xmlns:cc="http://creativecommons.org/ns#" xmlns:dc="http://purl.org/dc/elements/1.1/" xmlns:rdf="http://www.w3.org/1999/02/22-rdf-syntax-ns#" xmlns:svg="http://www.w3.org/2000/svg"
	 xmlns="http://www.w3.org/2000/svg" xmlns:xlink="http://www.w3.org/1999/xlink" x="0px" y="0px" viewBox="0 0 512 512"
	 style="enable-background:new 0 0 512 512;" xml:space="preserve">
<style type="text/css">
	.st0{fill:#222222;}
	.st1{enable-background:new    ;}
	.st2{fill:#FFFFFF;}
</style>
<polygon class="st0" points="256.4,25.8 56.4,141.3 56,371.5 255.6,486.2 455.6,370.7 456,140.5 "/>
<g class="st1">
	<path class="st2" d="M296.1,305.2h-81.4l-16.3,54.2c-2.2,7.5-9.1,12.6-16.9,12.6h0c-12,0-20.5-11.8-16.7-23.2L228,158.1
		c4-12.1,15.3-20.2,28-20.2h0c12.7,0,24,8.2,28,20.2l63.2,190.7c3.8,11.4-4.7,23.2-16.7,23.2H329c-7.8,0-14.7-5.1-16.9-12.6
		L296.1,305.2z M287.2,276.2l-9.2-31.5c-8-25.4-14.9-51.5-22.3-77.9h-1.3c-6.7,26.7-14,52.5-21.6,77.9l-9.5,31.5H287.2z"/>
</g>
</svg>
